<svg width="163" height="164" viewBox="0 0 163 164" fill="none" xmlns="http://www.w3.org/2000/svg">
<path d="M71.2142 156H73.8563C74.0125 156.76 74.286 157.428 74.6766 158.003C75.0601 158.578 75.5289 159.061 76.0828 159.452C76.6297 159.849 77.2369 160.148 77.9046 160.347C78.5722 160.545 79.2682 160.645 79.9926 160.645C81.3137 160.645 82.5104 160.311 83.5828 159.643C84.6482 158.976 85.4969 157.992 86.129 156.692C86.754 155.393 87.0665 153.798 87.0665 151.909C87.0665 150.02 86.754 148.425 86.129 147.126C85.4969 145.826 84.6482 144.842 83.5828 144.175C82.5104 143.507 81.3137 143.173 79.9926 143.173C79.2682 143.173 78.5722 143.273 77.9046 143.472C77.2369 143.67 76.6297 143.965 76.0828 144.356C75.5289 144.754 75.0601 145.24 74.6766 145.815C74.286 146.398 74.0125 147.065 73.8563 147.818H71.2142C71.4131 146.703 71.7753 145.705 72.3009 144.825C72.8264 143.944 73.4798 143.195 74.2611 142.577C75.0423 141.966 75.9195 141.501 76.8925 141.181C77.8584 140.862 78.8918 140.702 79.9926 140.702C81.8534 140.702 83.5083 141.156 84.9571 142.065C86.406 142.974 87.5459 144.267 88.3769 145.943C89.2078 147.619 89.6233 149.608 89.6233 151.909C89.6233 154.21 89.2078 156.199 88.3769 157.875C87.5459 159.551 86.406 160.844 84.9571 161.753C83.5083 162.662 81.8534 163.116 79.9926 163.116C78.8918 163.116 77.8584 162.957 76.8925 162.637C75.9195 162.317 75.0423 161.849 74.2611 161.231C73.4798 160.62 72.8264 159.874 72.3009 158.994C71.7753 158.12 71.4131 157.122 71.2142 156Z" fill="black"/>
<path d="M37.3898 136.371C38.5404 134.378 39.8945 132.864 41.4522 131.828C43.0099 130.791 44.6434 130.242 46.3527 130.179C48.062 130.116 49.7224 130.55 51.3339 131.48C52.9454 132.411 54.1513 133.632 54.9515 135.144C55.7517 136.655 56.0926 138.345 55.9742 140.212C55.8557 142.079 55.2212 144.009 54.0707 146.002C52.9201 147.994 51.566 149.509 50.0082 150.545C48.4505 151.581 46.817 152.131 45.1077 152.193C43.3984 152.256 41.738 151.823 40.1265 150.892C38.5151 149.962 37.3092 148.741 36.509 147.229C35.7088 145.717 35.3679 144.028 35.4863 142.161C35.6048 140.294 36.2393 138.364 37.3898 136.371ZM39.6041 137.649C38.6595 139.285 38.136 140.824 38.0335 142.266C37.9249 143.704 38.1681 144.98 38.7631 146.095C39.3519 147.206 40.2183 148.091 41.3623 148.752C42.5064 149.412 43.7097 149.722 44.9723 149.68C46.2287 149.634 47.4555 149.207 48.6528 148.397C49.8439 147.584 50.9118 146.359 51.8564 144.723C52.801 143.087 53.3276 141.55 53.4362 140.112C53.5386 138.67 53.2954 137.394 52.7066 136.283C52.1117 135.169 51.2422 134.281 50.0981 133.621C48.9541 132.96 47.7539 132.653 46.4975 132.698C45.2349 132.74 44.008 133.168 42.8169 133.981C41.6196 134.79 40.5487 136.013 39.6041 137.649Z" fill="black"/>
<path d="M16.1932 130.247L14.6165 127.516L26.5936 112.04L26.4657 111.818L7.07393 114.452L5.49723 111.721L24.3923 100.812L25.6281 102.953L11.2723 111.241L11.3788 111.425L29.1437 109.042L30.3369 111.108L19.3902 125.302L19.4967 125.486L33.8526 117.198L35.0883 119.338L16.1932 130.247Z" fill="black"/>
<path d="M22 87.8794H0.181818L0.181818 80.5073C0.181818 78.7956 0.490766 77.3965 1.10866 76.3098C1.71946 75.2161 2.54688 74.4064 3.59091 73.8809C4.63494 73.3553 5.79972 73.0925 7.08523 73.0925C8.37074 73.0925 9.53906 73.3553 10.5902 73.8809C11.6413 74.3993 12.4794 75.2019 13.1044 76.2885C13.7223 77.3752 14.0313 78.7672 14.0313 80.4647L14.0312 85.7488H11.6875L11.6875 80.5499C11.6875 79.378 11.4851 78.437 11.0803 77.7267C10.6754 77.0165 10.1286 76.5016 9.43963 76.182C8.74361 75.8553 7.95881 75.6919 7.08523 75.6919C6.21165 75.6919 5.4304 75.8553 4.74148 76.182C4.05256 76.5016 3.51278 77.0201 3.12216 77.7374C2.72443 78.4547 2.52557 79.4064 2.52557 80.5925L2.52557 85.2374H22V87.8794Z" fill="black"/>
<path d="M26.7424 56.8958L25.3575 59.2946L10.4681 41.4474L11.8317 39.0856L34.7325 43.0566L33.3475 45.4554L14.1818 41.9185L14.0965 42.0662L26.7424 56.8958ZM19.8729 51.7487L25.4553 42.0797L27.485 43.2516L21.9026 52.9206L19.8729 51.7487Z" fill="black"/>
<path d="M48.2904 6.5173L59.1995 25.4124L56.9852 26.6908L38.1235 17.7998L37.939 17.9063L46.5043 32.7419L44.2163 34.063L33.3072 15.1679L35.5214 13.8895L54.4413 22.7961L54.6259 22.6895L46.0392 7.81702L48.2904 6.5173Z" fill="black"/>
<path d="M71.7915 0.181818L74.817 0.181818L80.8682 10.3665H81.1238L87.175 0.181818L90.2006 0.181818L82.317 13.0085V22H79.675V13.0085L71.7915 0.181818Z" fill="black"/>
<path d="M155.261 48.2904L136.366 59.1995L135.088 56.9852L143.979 38.1235L143.872 37.939L129.036 46.5044L127.715 44.2163L146.611 33.3072L147.889 35.5215L138.982 54.4414L139.089 54.6259L153.961 46.0392L155.261 48.2904Z" fill="black"/>
<path d="M141 74.4002V71.6303L162.818 79.6417V82.369L141 90.3803V87.6104L159.366 81.0906V80.9201L141 74.4002ZM149.523 75.4229V86.5877H147.179V75.4229H149.523Z" fill="black"/>
<path d="M155.983 112.239L154.406 114.969L135.014 112.335L134.886 112.557L146.863 128.034L145.287 130.765L126.391 119.855L127.627 117.715L141.983 126.003L142.09 125.819L131.143 111.626L132.336 109.559L150.101 111.943L150.207 111.758L135.852 103.47L137.087 101.329L155.983 112.239Z" fill="black"/>
<path d="M115.81 128.727L126.719 147.622L115.315 154.206L114.143 152.177L123.259 146.914L119.573 140.529L111.048 145.451L109.876 143.421L118.401 138.5L114.693 132.078L105.43 137.426L104.258 135.396L115.81 128.727Z" fill="black"/>
<circle cx="81" cy="78" r="15" fill="#9D9D9D"/>
</svg>
