<svg width="649" height="227" viewBox="0 0 649 227" fill="none" xmlns="http://www.w3.org/2000/svg">
<path d="M3.89583 226.958C6.04744 226.958 7.79166 225.214 7.79166 223.062C7.79166 220.911 6.04744 219.167 3.89583 219.167C1.74422 219.167 0 220.911 0 223.062C0 225.214 1.74422 226.958 3.89583 226.958Z" fill="#AFAFAF"/>
<path d="M3.89583 154.167C6.04744 154.167 7.79166 152.422 7.79166 150.271C7.79166 148.119 6.04744 146.375 3.89583 146.375C1.74422 146.375 0 148.119 0 150.271C0 152.422 1.74422 154.167 3.89583 154.167Z" fill="#AFAFAF"/>
<path d="M3.89583 81.3749C6.04744 81.3749 7.79166 79.6307 7.79166 77.4791C7.79166 75.3275 6.04744 73.5833 3.89583 73.5833C1.74422 73.5833 0 75.3275 0 77.4791C0 79.6307 1.74422 81.3749 3.89583 81.3749Z" fill="#AFAFAF"/>
<path d="M3.89583 8.58329C6.04744 8.58329 7.79166 6.83907 7.79166 4.68746C7.79166 2.53585 6.04744 0.791626 3.89583 0.791626C1.74422 0.791626 0 2.53585 0 4.68746C0 6.83907 1.74422 8.58329 3.89583 8.58329Z" fill="#AFAFAF"/>
<path d="M49.6875 226.958C51.8391 226.958 53.5833 225.214 53.5833 223.062C53.5833 220.911 51.8391 219.167 49.6875 219.167C47.5358 219.167 45.7916 220.911 45.7916 223.062C45.7916 225.214 47.5358 226.958 49.6875 226.958Z" fill="#AFAFAF"/>
<path d="M49.6875 154.167C51.8391 154.167 53.5833 152.422 53.5833 150.271C53.5833 148.119 51.8391 146.375 49.6875 146.375C47.5358 146.375 45.7916 148.119 45.7916 150.271C45.7916 152.422 47.5358 154.167 49.6875 154.167Z" fill="#AFAFAF"/>
<path d="M49.6875 81.3749C51.8391 81.3749 53.5833 79.6307 53.5833 77.4791C53.5833 75.3275 51.8391 73.5833 49.6875 73.5833C47.5358 73.5833 45.7916 75.3275 45.7916 77.4791C45.7916 79.6307 47.5358 81.3749 49.6875 81.3749Z" fill="#AFAFAF"/>
<path d="M49.6875 8.58329C51.8391 8.58329 53.5833 6.83907 53.5833 4.68746C53.5833 2.53585 51.8391 0.791626 49.6875 0.791626C47.5358 0.791626 45.7916 2.53585 45.7916 4.68746C45.7916 6.83907 47.5358 8.58329 49.6875 8.58329Z" fill="#AFAFAF"/>
<path d="M95.4791 226.958C97.6307 226.958 99.3749 225.214 99.3749 223.062C99.3749 220.911 97.6307 219.167 95.4791 219.167C93.3275 219.167 91.5833 220.911 91.5833 223.062C91.5833 225.214 93.3275 226.958 95.4791 226.958Z" fill="#AFAFAF"/>
<path d="M95.4791 154.167C97.6307 154.167 99.3749 152.422 99.3749 150.271C99.3749 148.119 97.6307 146.375 95.4791 146.375C93.3275 146.375 91.5833 148.119 91.5833 150.271C91.5833 152.422 93.3275 154.167 95.4791 154.167Z" fill="#AFAFAF"/>
<path d="M95.4791 81.3749C97.6307 81.3749 99.3749 79.6307 99.3749 77.4791C99.3749 75.3275 97.6307 73.5833 95.4791 73.5833C93.3275 73.5833 91.5833 75.3275 91.5833 77.4791C91.5833 79.6307 93.3275 81.3749 95.4791 81.3749Z" fill="#AFAFAF"/>
<path d="M95.4791 8.58329C97.6307 8.58329 99.3749 6.83907 99.3749 4.68746C99.3749 2.53585 97.6307 0.791626 95.4791 0.791626C93.3275 0.791626 91.5833 2.53585 91.5833 4.68746C91.5833 6.83907 93.3275 8.58329 95.4791 8.58329Z" fill="#AFAFAF"/>
<path d="M141.271 226.958C143.422 226.958 145.167 225.214 145.167 223.062C145.167 220.911 143.422 219.167 141.271 219.167C139.119 219.167 137.375 220.911 137.375 223.062C137.375 225.214 139.119 226.958 141.271 226.958Z" fill="#AFAFAF"/>
<path d="M141.271 154.167C143.422 154.167 145.167 152.422 145.167 150.271C145.167 148.119 143.422 146.375 141.271 146.375C139.119 146.375 137.375 148.119 137.375 150.271C137.375 152.422 139.119 154.167 141.271 154.167Z" fill="#AFAFAF"/>
<path d="M141.271 81.3749C143.422 81.3749 145.167 79.6307 145.167 77.4791C145.167 75.3275 143.422 73.5833 141.271 73.5833C139.119 73.5833 137.375 75.3275 137.375 77.4791C137.375 79.6307 139.119 81.3749 141.271 81.3749Z" fill="#AFAFAF"/>
<path d="M141.271 8.58329C143.422 8.58329 145.167 6.83907 145.167 4.68746C145.167 2.53585 143.422 0.791626 141.271 0.791626C139.119 0.791626 137.375 2.53585 137.375 4.68746C137.375 6.83907 139.119 8.58329 141.271 8.58329Z" fill="#AFAFAF"/>
<path d="M187.062 226.958C189.214 226.958 190.958 225.214 190.958 223.062C190.958 220.911 189.214 219.167 187.062 219.167C184.911 219.167 183.167 220.911 183.167 223.062C183.167 225.214 184.911 226.958 187.062 226.958Z" fill="#AFAFAF"/>
<path d="M187.062 154.167C189.214 154.167 190.958 152.422 190.958 150.271C190.958 148.119 189.214 146.375 187.062 146.375C184.911 146.375 183.167 148.119 183.167 150.271C183.167 152.422 184.911 154.167 187.062 154.167Z" fill="#AFAFAF"/>
<path d="M187.062 81.3749C189.214 81.3749 190.958 79.6307 190.958 77.4791C190.958 75.3275 189.214 73.5833 187.062 73.5833C184.911 73.5833 183.167 75.3275 183.167 77.4791C183.167 79.6307 184.911 81.3749 187.062 81.3749Z" fill="#AFAFAF"/>
<path d="M187.062 8.58329C189.214 8.58329 190.958 6.83907 190.958 4.68746C190.958 2.53585 189.214 0.791626 187.062 0.791626C184.911 0.791626 183.167 2.53585 183.167 4.68746C183.167 6.83907 184.911 8.58329 187.062 8.58329Z" fill="#AFAFAF"/>
<path d="M232.854 226.958C235.006 226.958 236.75 225.214 236.75 223.062C236.75 220.911 235.006 219.167 232.854 219.167C230.702 219.167 228.958 220.911 228.958 223.062C228.958 225.214 230.702 226.958 232.854 226.958Z" fill="#AFAFAF"/>
<path d="M232.854 154.167C235.006 154.167 236.75 152.422 236.75 150.271C236.75 148.119 235.006 146.375 232.854 146.375C230.702 146.375 228.958 148.119 228.958 150.271C228.958 152.422 230.702 154.167 232.854 154.167Z" fill="#AFAFAF"/>
<path d="M232.854 81.3749C235.006 81.3749 236.75 79.6307 236.75 77.4791C236.75 75.3275 235.006 73.5833 232.854 73.5833C230.702 73.5833 228.958 75.3275 228.958 77.4791C228.958 79.6307 230.702 81.3749 232.854 81.3749Z" fill="#AFAFAF"/>
<path d="M232.854 8.58329C235.006 8.58329 236.75 6.83907 236.75 4.68746C236.75 2.53585 235.006 0.791626 232.854 0.791626C230.702 0.791626 228.958 2.53585 228.958 4.68746C228.958 6.83907 230.702 8.58329 232.854 8.58329Z" fill="#AFAFAF"/>
<path d="M278.646 226.958C280.797 226.958 282.541 225.214 282.541 223.062C282.541 220.911 280.797 219.167 278.646 219.167C276.494 219.167 274.75 220.911 274.75 223.062C274.75 225.214 276.494 226.958 278.646 226.958Z" fill="#AFAFAF"/>
<path d="M278.646 154.167C280.797 154.167 282.541 152.422 282.541 150.271C282.541 148.119 280.797 146.375 278.646 146.375C276.494 146.375 274.75 148.119 274.75 150.271C274.75 152.422 276.494 154.167 278.646 154.167Z" fill="#AFAFAF"/>
<path d="M278.646 81.3749C280.797 81.3749 282.541 79.6307 282.541 77.4791C282.541 75.3275 280.797 73.5833 278.646 73.5833C276.494 73.5833 274.75 75.3275 274.75 77.4791C274.75 79.6307 276.494 81.3749 278.646 81.3749Z" fill="#AFAFAF"/>
<path d="M278.646 8.58329C280.797 8.58329 282.541 6.83907 282.541 4.68746C282.541 2.53585 280.797 0.791626 278.646 0.791626C276.494 0.791626 274.75 2.53585 274.75 4.68746C274.75 6.83907 276.494 8.58329 278.646 8.58329Z" fill="#AFAFAF"/>
<path d="M324.437 226.958C326.589 226.958 328.333 225.214 328.333 223.062C328.333 220.911 326.589 219.167 324.437 219.167C322.286 219.167 320.541 220.911 320.541 223.062C320.541 225.214 322.286 226.958 324.437 226.958Z" fill="#AFAFAF"/>
<path d="M324.437 154.167C326.589 154.167 328.333 152.422 328.333 150.271C328.333 148.119 326.589 146.375 324.437 146.375C322.286 146.375 320.541 148.119 320.541 150.271C320.541 152.422 322.286 154.167 324.437 154.167Z" fill="#AFAFAF"/>
<path d="M324.437 81.3749C326.589 81.3749 328.333 79.6307 328.333 77.4791C328.333 75.3275 326.589 73.5833 324.437 73.5833C322.286 73.5833 320.541 75.3275 320.541 77.4791C320.541 79.6307 322.286 81.3749 324.437 81.3749Z" fill="#AFAFAF"/>
<path d="M324.437 8.58329C326.589 8.58329 328.333 6.83907 328.333 4.68746C328.333 2.53585 326.589 0.791626 324.437 0.791626C322.286 0.791626 320.541 2.53585 320.541 4.68746C320.541 6.83907 322.286 8.58329 324.437 8.58329Z" fill="#AFAFAF"/>
<path d="M370.229 226.958C372.38 226.958 374.125 225.214 374.125 223.062C374.125 220.911 372.38 219.167 370.229 219.167C368.077 219.167 366.333 220.911 366.333 223.062C366.333 225.214 368.077 226.958 370.229 226.958Z" fill="#AFAFAF"/>
<path d="M370.229 154.167C372.38 154.167 374.125 152.422 374.125 150.271C374.125 148.119 372.38 146.375 370.229 146.375C368.077 146.375 366.333 148.119 366.333 150.271C366.333 152.422 368.077 154.167 370.229 154.167Z" fill="#AFAFAF"/>
<path d="M370.229 81.3749C372.38 81.3749 374.125 79.6307 374.125 77.4791C374.125 75.3275 372.38 73.5833 370.229 73.5833C368.077 73.5833 366.333 75.3275 366.333 77.4791C366.333 79.6307 368.077 81.3749 370.229 81.3749Z" fill="#AFAFAF"/>
<path d="M370.229 8.58329C372.38 8.58329 374.125 6.83907 374.125 4.68746C374.125 2.53585 372.38 0.791626 370.229 0.791626C368.077 0.791626 366.333 2.53585 366.333 4.68746C366.333 6.83907 368.077 8.58329 370.229 8.58329Z" fill="#AFAFAF"/>
<path d="M416.02 226.958C418.172 226.958 419.916 225.214 419.916 223.062C419.916 220.911 418.172 219.167 416.02 219.167C413.869 219.167 412.125 220.911 412.125 223.062C412.125 225.214 413.869 226.958 416.02 226.958Z" fill="#AFAFAF"/>
<path d="M416.02 154.167C418.172 154.167 419.916 152.422 419.916 150.271C419.916 148.119 418.172 146.375 416.02 146.375C413.869 146.375 412.125 148.119 412.125 150.271C412.125 152.422 413.869 154.167 416.02 154.167Z" fill="#AFAFAF"/>
<path d="M416.02 81.3749C418.172 81.3749 419.916 79.6307 419.916 77.4791C419.916 75.3275 418.172 73.5833 416.02 73.5833C413.869 73.5833 412.125 75.3275 412.125 77.4791C412.125 79.6307 413.869 81.3749 416.02 81.3749Z" fill="#AFAFAF"/>
<path d="M416.02 8.58329C418.172 8.58329 419.916 6.83907 419.916 4.68746C419.916 2.53585 418.172 0.791626 416.02 0.791626C413.869 0.791626 412.125 2.53585 412.125 4.68746C412.125 6.83907 413.869 8.58329 416.02 8.58329Z" fill="#AFAFAF"/>
<path d="M461.812 226.958C463.964 226.958 465.708 225.214 465.708 223.062C465.708 220.911 463.964 219.167 461.812 219.167C459.66 219.167 457.916 220.911 457.916 223.062C457.916 225.214 459.66 226.958 461.812 226.958Z" fill="#AFAFAF"/>
<path d="M461.812 154.167C463.964 154.167 465.708 152.422 465.708 150.271C465.708 148.119 463.964 146.375 461.812 146.375C459.66 146.375 457.916 148.119 457.916 150.271C457.916 152.422 459.66 154.167 461.812 154.167Z" fill="#AFAFAF"/>
<path d="M461.812 81.3749C463.964 81.3749 465.708 79.6307 465.708 77.4791C465.708 75.3275 463.964 73.5833 461.812 73.5833C459.66 73.5833 457.916 75.3275 457.916 77.4791C457.916 79.6307 459.66 81.3749 461.812 81.3749Z" fill="#AFAFAF"/>
<path d="M461.812 8.58329C463.964 8.58329 465.708 6.83907 465.708 4.68746C465.708 2.53585 463.964 0.791626 461.812 0.791626C459.66 0.791626 457.916 2.53585 457.916 4.68746C457.916 6.83907 459.66 8.58329 461.812 8.58329Z" fill="#AFAFAF"/>
<path d="M507.604 226.958C509.755 226.958 511.5 225.214 511.5 223.062C511.5 220.911 509.755 219.167 507.604 219.167C505.452 219.167 503.708 220.911 503.708 223.062C503.708 225.214 505.452 226.958 507.604 226.958Z" fill="#AFAFAF"/>
<path d="M507.604 154.167C509.755 154.167 511.5 152.422 511.5 150.271C511.5 148.119 509.755 146.375 507.604 146.375C505.452 146.375 503.708 148.119 503.708 150.271C503.708 152.422 505.452 154.167 507.604 154.167Z" fill="#AFAFAF"/>
<path d="M507.604 81.3749C509.755 81.3749 511.5 79.6307 511.5 77.4791C511.5 75.3275 509.755 73.5833 507.604 73.5833C505.452 73.5833 503.708 75.3275 503.708 77.4791C503.708 79.6307 505.452 81.3749 507.604 81.3749Z" fill="#AFAFAF"/>
<path d="M507.604 8.58329C509.755 8.58329 511.5 6.83907 511.5 4.68746C511.5 2.53585 509.755 0.791626 507.604 0.791626C505.452 0.791626 503.708 2.53585 503.708 4.68746C503.708 6.83907 505.452 8.58329 507.604 8.58329Z" fill="#AFAFAF"/>
<path d="M553.395 226.958C555.547 226.958 557.291 225.214 557.291 223.062C557.291 220.911 555.547 219.167 553.395 219.167C551.244 219.167 549.5 220.911 549.5 223.062C549.5 225.214 551.244 226.958 553.395 226.958Z" fill="#AFAFAF"/>
<path d="M553.395 154.167C555.547 154.167 557.291 152.422 557.291 150.271C557.291 148.119 555.547 146.375 553.395 146.375C551.244 146.375 549.5 148.119 549.5 150.271C549.5 152.422 551.244 154.167 553.395 154.167Z" fill="#AFAFAF"/>
<path d="M553.395 81.3749C555.547 81.3749 557.291 79.6307 557.291 77.4791C557.291 75.3275 555.547 73.5833 553.395 73.5833C551.244 73.5833 549.5 75.3275 549.5 77.4791C549.5 79.6307 551.244 81.3749 553.395 81.3749Z" fill="#AFAFAF"/>
<path d="M553.395 8.58329C555.547 8.58329 557.291 6.83907 557.291 4.68746C557.291 2.53585 555.547 0.791626 553.395 0.791626C551.244 0.791626 549.5 2.53585 549.5 4.68746C549.5 6.83907 551.244 8.58329 553.395 8.58329Z" fill="#AFAFAF"/>
<path d="M599.187 226.958C601.339 226.958 603.083 225.214 603.083 223.062C603.083 220.911 601.339 219.167 599.187 219.167C597.035 219.167 595.291 220.911 595.291 223.062C595.291 225.214 597.035 226.958 599.187 226.958Z" fill="#AFAFAF"/>
<path d="M599.187 154.167C601.339 154.167 603.083 152.422 603.083 150.271C603.083 148.119 601.339 146.375 599.187 146.375C597.035 146.375 595.291 148.119 595.291 150.271C595.291 152.422 597.035 154.167 599.187 154.167Z" fill="#AFAFAF"/>
<path d="M599.187 81.3749C601.339 81.3749 603.083 79.6307 603.083 77.4791C603.083 75.3275 601.339 73.5833 599.187 73.5833C597.035 73.5833 595.291 75.3275 595.291 77.4791C595.291 79.6307 597.035 81.3749 599.187 81.3749Z" fill="#AFAFAF"/>
<path d="M599.187 8.58329C601.339 8.58329 603.083 6.83907 603.083 4.68746C603.083 2.53585 601.339 0.791626 599.187 0.791626C597.035 0.791626 595.291 2.53585 595.291 4.68746C595.291 6.83907 597.035 8.58329 599.187 8.58329Z" fill="#AFAFAF"/>
<path d="M644.979 226.958C647.13 226.958 648.874 225.214 648.874 223.062C648.874 220.911 647.13 219.167 644.979 219.167C642.827 219.167 641.083 220.911 641.083 223.062C641.083 225.214 642.827 226.958 644.979 226.958Z" fill="#AFAFAF"/>
<path d="M644.979 154.167C647.13 154.167 648.874 152.422 648.874 150.271C648.874 148.119 647.13 146.375 644.979 146.375C642.827 146.375 641.083 148.119 641.083 150.271C641.083 152.422 642.827 154.167 644.979 154.167Z" fill="#AFAFAF"/>
<path d="M644.979 81.3749C647.13 81.3749 648.874 79.6307 648.874 77.4791C648.874 75.3275 647.13 73.5833 644.979 73.5833C642.827 73.5833 641.083 75.3275 641.083 77.4791C641.083 79.6307 642.827 81.3749 644.979 81.3749Z" fill="#AFAFAF"/>
<path d="M644.979 8.58329C647.13 8.58329 648.874 6.83907 648.874 4.68746C648.874 2.53585 647.13 0.791626 644.979 0.791626C642.827 0.791626 641.083 2.53585 641.083 4.68746C641.083 6.83907 642.827 8.58329 644.979 8.58329Z" fill="#AFAFAF"/>
</svg>
